<?xml version="1.0" encoding="utf-8"?>
<!-- Generator: Adobe Illustrator 16.0.0, SVG Export Plug-In . SVG Version: 6.00 Build 0)  -->
<!DOCTYPE svg PUBLIC "-//W3C//DTD SVG 1.1//EN" "http://www.w3.org/Graphics/SVG/1.1/DTD/svg11.dtd">
<svg version="1.1" id="Layer_1" xmlns="http://www.w3.org/2000/svg" xmlns:xlink="http://www.w3.org/1999/xlink" x="0px" y="0px"
	 width="128px" height="128px" viewBox="0 0 128 128" enable-background="new 0 0 128 128" xml:space="preserve">
<g>
	<path fill="#FFFFFF" d="M64.071,115.432l-0.069-0.02l-0.071,0.021l-13.9,3.82l-0.241,0.068c3.53,2.502,7.42,4.898,11.716,7.125
		c0.783,0.406,1.638,0.607,2.496,0.607c0.856,0,1.713-0.201,2.496-0.607c4.296-2.227,8.188-4.621,11.713-7.125
		c-0.179-0.051-0.277-0.08-0.277-0.08L64.071,115.432z"/>
	<path fill="#FFFFFF" d="M109.285,13.195L65.441,1.139c-0.471-0.128-0.954-0.193-1.439-0.193c-0.486,0-0.967,0.064-1.437,0.193
		L18.718,13.195c-2.356,0.648-3.987,2.791-3.987,5.232v7.16l49.271-13.59l49.27,13.468v-7.038
		C113.272,15.986,111.644,13.843,109.285,13.195z"/>
	<path fill="#FFFFFF" d="M65.438,23.564c-0.47-0.132-0.953-0.197-1.436-0.197c-0.486,0.004-0.967,0.064-1.437,0.197l-23.485,6.458
		l-24.353,6.437l0.003,19.28c-0.01,0.502-0.022,2.565,0.309,5.737c0.241,2.304,0.663,5.189,1.401,8.49l47.561-13.118v-0.001
		l37.083,10.198c-0.664,3.07-1.654,6.623-3.132,10.447l-32.516-8.941c-0.47-0.131-0.953-0.195-1.436-0.195
		c-0.486,0-0.967,0.064-1.437,0.195L19.52,80.387c0.189,0.51,0.383,1.025,0.586,1.543c1.043,2.652,2.34,5.516,3.941,8.502
		c1.657,3.094,3.644,6.322,6.03,9.582c2.221,3.037,4.789,6.104,7.748,9.125l26.177-7.201l26.176,7.201
		c2.96-3.021,5.528-6.088,7.749-9.125L65.438,91.08c-0.47-0.131-0.953-0.195-1.436-0.195c-0.486,0.002-0.967,0.064-1.437,0.195
		l-21.229,5.84c-2.453-2.98-4.635-6.141-6.559-9.475l29.225-8.035l29.186,8.021l9.232,2.541v0.033l1.538,0.426
		c1.599-2.986,2.898-5.85,3.938-8.502c0.204-0.518,0.4-1.033,0.589-1.543c1.387-3.75,2.375-7.273,3.08-10.42
		c0.735-3.301,1.154-6.186,1.396-8.488c-0.001-0.006-0.001-0.006-0.001-0.006c0.093-0.89,0.155-1.682,0.205-2.388L65.438,45.991
		c-0.47-0.133-0.953-0.197-1.436-0.197c-0.486,0-0.967,0.064-1.437,0.197L25.577,56.16c0-0.118,0.001-0.188,0.001-0.195
		c0.002-0.054,0.004-0.11,0.004-0.163V45.02v-0.032l38.42-10.566l49.27,13.593V36.543l-10.852-2.809L65.438,23.564z"/>
</g>
</svg>
