<?xml version="1.0" encoding="utf-8"?>
<!-- Generator: Adobe Illustrator 16.0.0, SVG Export Plug-In . SVG Version: 6.00 Build 0)  -->
<!DOCTYPE svg PUBLIC "-//W3C//DTD SVG 1.1//EN" "http://www.w3.org/Graphics/SVG/1.1/DTD/svg11.dtd">
<svg version="1.1" id="Layer_1" xmlns="http://www.w3.org/2000/svg" xmlns:xlink="http://www.w3.org/1999/xlink" x="0px" y="0px"
	 width="128px" height="128px" viewBox="0 0 128 128" enable-background="new 0 0 128 128" xml:space="preserve">
<g>
	<g>
		<path fill="#404B5B" d="M64.001,1.5l-45.83,21.347v39.248c0,29.821,19.157,55.153,45.83,64.405
			c26.676-9.252,45.828-34.584,45.828-64.405V22.847L64.001,1.5z"/>
		<path fill="#84CA9A" d="M64.001,11.152v106.003c22.305-9.042,37.082-30.795,37.082-55.06V28.423L64.001,11.152z"/>
		<path fill="#97D1A6" d="M26.921,28.423v33.672c0,24.265,14.779,46.018,37.08,55.06V11.152L26.921,28.423z"/>
	</g>
	<g>
		<path fill="#FFFFFF" d="M87.131,62.904c0,12.768-10.351,23.127-23.124,23.127c-12.772,0-23.124-10.359-23.124-23.127
			c0-12.77,10.352-23.127,23.124-23.127C76.78,39.777,87.131,50.135,87.131,62.904z"/>
		<polygon fill="#404B5B" points="59.768,74.785 49.582,64.599 52.975,61.206 59.768,67.994 75.039,52.722 78.432,56.116 		"/>
	</g>
</g>
</svg>
