<?xml version="1.0" encoding="utf-8"?>
<!-- Generator: Adobe Illustrator 16.0.0, SVG Export Plug-In . SVG Version: 6.00 Build 0)  -->
<!DOCTYPE svg PUBLIC "-//W3C//DTD SVG 1.1//EN" "http://www.w3.org/Graphics/SVG/1.1/DTD/svg11.dtd">
<svg version="1.1" id="Layer_1" xmlns="http://www.w3.org/2000/svg" xmlns:xlink="http://www.w3.org/1999/xlink" x="0px" y="0px"
	 width="600px" height="518px" viewBox="0 0 600 518" enable-background="new 0 0 600 518" xml:space="preserve">
<g>
	<g>
		<g>
			<path fill="#404B5B" d="M295.156,236.244c0,9.29-3.531,18.58-10.622,25.671c-7.087,7.083-16.396,10.626-25.688,10.626l0,0
				c-9.285,0-18.577-3.543-25.667-10.626c-7.082-7.091-10.625-16.381-10.625-25.671v-7.41h72.603V236.244z"/>
			<path fill="#FFFFFF" d="M258.845,265.57c-7.84,0-15.205-3.059-20.736-8.594c-1.511-1.519-1.509-3.973,0.005-5.481
				c1.52-1.512,3.967-1.509,5.479,0.006c4.066,4.079,9.489,6.321,15.251,6.321c2.141,0,3.875,1.734,3.875,3.875
				C262.72,263.837,260.986,265.57,258.845,265.57z"/>
			<path fill="#404B5B" d="M377.453,236.244c0,9.29-3.545,18.58-10.629,25.671c-7.09,7.083-16.377,10.619-25.668,10.619l0,0
				c-9.293,0-18.604-3.536-25.688-10.619c-7.092-7.091-10.623-16.381-10.623-25.671v-7.41h72.607V236.244z"/>
			<path fill="#FFFFFF" d="M341.156,265.57c-7.842,0-15.215-3.057-20.746-8.594c-1.518-1.519-1.518-3.971,0.002-5.481
				c1.512-1.509,3.963-1.505,5.475,0.004c4.078,4.081,9.496,6.323,15.27,6.323c2.131,0,3.871,1.734,3.871,3.875
				C345.027,263.837,343.287,265.57,341.156,265.57z"/>
		</g>
		<path fill="#343D4A" d="M383.65,226.612c0-2.552-2.096-4.646-4.646-4.646H220.998c-2.55,0-4.646,2.094-4.646,4.646
			c0,2.56,2.096,4.644,4.646,4.644h158.006C381.555,231.256,383.65,229.171,383.65,226.612z"/>
	</g>
	<g>
		<path fill="#404B5B" d="M300.001,144.405l-119.721,19.956c-2.599,0.441-4.734,2.512-5.121,5.282
			c-0.37,2.751,1.129,5.337,3.526,6.442l42.713,19.941c23.887,11.141,50.505,17.428,78.603,17.428
			c28.098,0,54.713-6.288,78.602-17.428l42.707-19.941c2.402-1.105,3.896-3.691,3.529-6.442c-0.383-2.77-2.52-4.841-5.115-5.282
			L300.001,144.405z"/>
		<path fill="#404B5B" d="M377.453,109.552v58.102h-154.9v-58.102c0-19.26,15.589-34.845,34.84-34.845
			c7.765,0,14.949,2.537,20.714,6.83c0.354,0.28,0.7,0.559,1.067,0.818c5.791,4.361,13.006,6.92,20.827,6.92
			c7.778,0,14.926-2.533,20.727-6.847c0.027-0.024,0.068-0.042,0.1-0.073c0.367-0.259,0.713-0.539,1.066-0.818
			c0.014-0.017,0.029-0.041,0.043-0.052c5.783-4.256,12.92-6.778,20.672-6.778C361.854,74.707,377.453,90.292,377.453,109.552z"/>
		<path fill="#404B5B" d="M377.453,167.654c0,7.969-34.684,14.45-77.452,14.45s-77.448-6.481-77.448-14.45
			c0-7.992,34.68-14.473,77.448-14.473S377.453,159.663,377.453,167.654z"/>
		<g>
			<path fill="#FFFFFF" d="M300.001,160.162c-42.768,0-77.448-6.483-77.448-14.45v21.943c0,7.969,34.68,14.45,77.448,14.45
				s77.452-6.481,77.452-14.45v-21.943C377.453,153.679,342.77,160.162,300.001,160.162z"/>
		</g>
	</g>
</g>
</svg>
