<?xml version="1.0" encoding="utf-8"?>
<!-- Generator: Adobe Illustrator 16.0.0, SVG Export Plug-In . SVG Version: 6.00 Build 0)  -->
<!DOCTYPE svg PUBLIC "-//W3C//DTD SVG 1.1//EN" "http://www.w3.org/Graphics/SVG/1.1/DTD/svg11.dtd">
<svg version="1.1" id="Layer_1" xmlns="http://www.w3.org/2000/svg" xmlns:xlink="http://www.w3.org/1999/xlink" x="0px" y="0px"
	 width="600px" height="518px" viewBox="0 0 600 518" enable-background="new 0 0 600 518" xml:space="preserve">
<g>
	<rect x="166.325" y="223.605" fill="#F0C6BD" width="70.732" height="29.356"/>
	<rect x="355.161" y="223.605" fill="#F0C6BD" width="70.728" height="29.356"/>
	<path fill="none" d="M214.438,174.188l-1.068,4.684l-0.458,2.026c0.087-0.632,0.197-1.264,0.327-1.875
		C213.545,177.39,213.958,175.779,214.438,174.188z"/>
	<path fill="#E64C3C" d="M453.709,170.441v3.072l-0.021,6.905v2.484l-0.068,20.281l-0.085,40.082l-0.021,9.692h-34.593
		c-0.043-3.397-0.762-6.644-1.982-9.607c-3.833-9.279-12.854-15.857-23.46-16.142c-0.24-0.022-0.48-0.022-0.72-0.022h-10.437
		c-10.867,0-20.192,6.622-24.113,16.078h-0.022c-0.021,0.021-0.021,0.021,0,0.042c-1.262,2.985-1.98,6.229-2.026,9.65H232.801
		c-0.042-3.421-0.762-6.709-2.025-9.692c-3.966-9.456-13.266-16.078-24.158-16.078h-10.435c-14.333,0-25.945,11.502-26.163,25.771
		h-18.995v-0.087c-2.157-0.172-4.227-0.61-6.188-1.306c-4.618-1.589-8.604-4.51-11.501-8.299c-1.612-2.072-2.876-4.401-3.747-6.929
		c-0.021,0,0-0.021,0-0.021c-0.892-2.527-1.372-5.271-1.372-8.103v-14.465c0-0.566,0.021-1.132,0.065-1.698
		c0-0.195,0.022-0.415,0.044-0.611c0.043-0.502,0.109-0.98,0.174-1.461c0.087-0.521,0.174-1.044,0.283-1.545
		c0.066-0.24,0.11-0.48,0.174-0.698c0.284-1.131,0.632-2.221,1.046-3.267c0.153-0.37,0.305-0.74,0.479-1.089
		c0.566-1.221,1.22-2.396,1.96-3.506h0.022c4.444-6.58,11.958-10.893,20.498-10.893l58.206-7.843l1.742-0.239l19.759-20.673
		c6.861-7.711,12.307-13.636,16.555-18.167l1.677-1.721c2.091-2.222,3.878-4.051,5.381-5.555l0.501-0.501
		c4.945-4.922,6.623-6.143,6.623-6.143c10.26-3.986,18.429-3.92,23.178-4.662l116.542,0.762l14.941,13.638L453.709,170.441z"/>
	<g>
		<path fill="#314F5F" d="M229.374,259.986c0,15.091-12.227,27.325-27.319,27.325c-15.088,0-27.318-12.233-27.318-27.325
			c0-15.083,12.23-27.31,27.318-27.31C217.147,232.676,229.374,244.903,229.374,259.986z"/>
		<path fill="#BAC1C3" d="M214.417,259.986c0,6.829-5.534,12.373-12.362,12.373c-6.827,0-12.363-5.544-12.363-12.373
			c0-6.824,5.536-12.357,12.363-12.357C208.883,247.628,214.417,253.162,214.417,259.986z"/>
	</g>
	<g>
		<path fill="#314F5F" d="M414.86,259.986c0,15.091-12.232,27.325-27.317,27.325c-15.091,0-27.318-12.233-27.318-27.325
			c0-15.083,12.228-27.31,27.318-27.31C402.628,232.676,414.86,244.903,414.86,259.986z"/>
		<path fill="#BAC1C3" d="M399.906,259.986c0,6.829-5.534,12.373-12.363,12.373c-6.832,0-12.368-5.544-12.368-12.373
			c0-6.824,5.536-12.357,12.368-12.357C394.372,247.628,399.906,253.162,399.906,259.986z"/>
	</g>
	<path fill="#EEEEEE" d="M154.969,214.923c0,8.888-6.12,8.737-26.75,8.668v-9.845c0-0.566,0.021-1.132,0.065-1.698
		c0-0.195,0.022-0.415,0.044-0.611c0.043-0.502,0.109-0.98,0.174-1.461c0.087-0.521,0.174-1.044,0.283-1.545
		c0.066-0.24,0.11-0.48,0.174-0.698c0.284-1.131,0.632-2.221,1.046-3.267c0.153-0.37,0.305-0.74,0.479-1.089
		c0.566-1.221,1.22-2.396,1.96-3.506h0.022C145.907,202.921,154.969,208.497,154.969,214.923z"/>
	<polygon fill="#EEEEEE" points="237.416,180.9 311.49,180.9 326.115,139.001 272.247,138.886 	"/>
	<polygon fill="#EEEEEE" points="337.079,138.886 337.079,180.9 390.527,180.9 377.279,138.886 	"/>
	<polygon fill="#EEEEEE" points="383.676,138.886 397.378,180.9 421.133,180.9 430.263,170.278 399.906,138.886 	"/>
	<rect x="312.416" y="181.454" fill="#C84D43" width="0.708" height="71.508"/>
	<rect x="393.471" y="181.454" fill="#C84D43" width="0.71" height="45.759"/>
	<rect x="237.057" y="181.454" fill="#C84D43" width="0.714" height="71.508"/>
	<polygon fill="#C84D43" points="453.709,182.91 198.445,182.91 230.119,180.9 453.709,180.9 	"/>
	<polygon fill="#EEEEEE" points="263.212,134.281 217.968,180.898 211.171,181.137 213.24,179.024 213.371,178.872 249.227,142.058 
		250.903,140.337 256.284,134.782 256.785,134.281 	"/>
	<path fill="#EEEEEE" d="M453.709,180.412c-0.374-0.011-0.744-0.031-1.127-0.031c-13.684,0-15.874,5.11-15.874,11.419
		c0,6.302,2.19,11.412,15.874,11.412c0.383,0,0.753-0.017,1.127-0.03V180.412z"/>
	<path fill="#314F5F" d="M303.57,190.006c0,0.987-0.804,1.795-1.793,1.795H290.53c-0.987,0-1.787-0.808-1.787-1.795l0,0
		c0-0.986,0.799-1.796,1.787-1.796h11.248C302.767,188.21,303.57,189.02,303.57,190.006L303.57,190.006z"/>
	<path fill="#314F5F" d="M388.892,190.006c0,0.987-0.8,1.795-1.792,1.795h-11.244c-0.993,0-1.79-0.808-1.79-1.795l0,0
		c0-0.986,0.797-1.796,1.79-1.796H387.1C388.092,188.21,388.892,189.02,388.892,190.006L388.892,190.006z"/>
	<polygon fill="#F16256" points="457.781,252.961 418.93,252.961 416.906,243.274 457.781,243.274 	"/>
	<path fill="#F16256" d="M133.176,243.274c4.158,5.397,10.491,9.028,17.686,9.59v0.098h18.866l0.19-0.979
		c0.133-2.519,0.611-4.939,1.405-7.216l0.288-1.493H133.176z"/>
	<polygon fill="#F16256" points="350.971,252.961 232.793,252.961 230.769,243.274 358.201,243.274 	"/>
</g>
</svg>
