<?xml version="1.0" encoding="utf-8"?>
<!-- Generator: Adobe Illustrator 16.0.0, SVG Export Plug-In . SVG Version: 6.00 Build 0)  -->
<!DOCTYPE svg PUBLIC "-//W3C//DTD SVG 1.1//EN" "http://www.w3.org/Graphics/SVG/1.1/DTD/svg11.dtd">
<svg version="1.1" id="Layer_1" xmlns="http://www.w3.org/2000/svg" xmlns:xlink="http://www.w3.org/1999/xlink" x="0px" y="0px"
	 width="600px" height="518px" viewBox="0 0 600 518" enable-background="new 0 0 600 518" xml:space="preserve">
<g>
	<path fill="#404B5B" d="M300,71.429c-43.847,0-79.408,35.585-79.408,79.411c0,18.291,6.635,34.66,16.449,48.419
		C300,287.471,300,287.471,300,287.471s0,0,62.966-88.218c9.812-13.757,16.442-30.157,16.442-48.413
		C379.408,107.014,343.887,71.429,300,71.429z"/>
	<path fill="#F6F9FB" d="M359.123,150.84c0,32.719-26.432,59.126-59.123,59.126c-32.648,0-59.131-26.407-59.131-59.126
		c0-32.648,26.482-59.141,59.131-59.141C332.691,91.699,359.123,118.192,359.123,150.84z"/>
	<g>
		<path fill="#404B5B" d="M299.699,124.763c-4.188,0-8.281,1.08-12.278,3.236l-2.475-6.853c2.156-1.142,4.583-2.061,7.281-2.76
			c2.696-0.697,5.568-1.047,8.614-1.047c3.616,0,6.582,0.492,8.899,1.476c2.314,0.984,4.171,2.236,5.566,3.759
			c1.396,1.523,2.363,3.221,2.903,5.092c0.538,1.873,0.81,3.665,0.81,5.378c0,2.158-0.414,4.078-1.237,5.758
			c-0.825,1.682-1.841,3.252-3.046,4.711c-1.206,1.46-2.538,2.855-3.997,4.188c-1.462,1.333-2.794,2.712-3.997,4.14
			c-1.207,1.428-2.223,2.983-3.047,4.664c-0.824,1.682-1.236,3.569-1.236,5.663c0,0.318,0,0.667,0,1.047
			c0,0.381,0.031,0.73,0.096,1.047h-7.425c-0.254-1.269-0.38-2.601-0.38-3.998c0-2.03,0.364-3.87,1.094-5.521
			c0.729-1.649,1.666-3.188,2.808-4.616c1.142-1.427,2.346-2.76,3.618-3.997c1.269-1.237,2.475-2.49,3.615-3.76
			c1.143-1.269,2.078-2.601,2.809-3.998c0.729-1.395,1.095-2.917,1.095-4.568c0-2.665-0.856-4.838-2.569-6.52
			C305.504,125.605,302.997,124.763,299.699,124.763z M305.695,179.681c0,1.713-0.572,3.205-1.715,4.474
			c-1.142,1.268-2.697,1.903-4.664,1.903c-1.967,0-3.521-0.635-4.664-1.903c-1.142-1.269-1.713-2.76-1.713-4.474
			c0-1.713,0.571-3.203,1.713-4.473c1.142-1.269,2.696-1.904,4.664-1.904c1.965,0,3.522,0.635,4.664,1.904
			C305.123,176.478,305.695,177.968,305.695,179.681z"/>
	</g>
</g>
</svg>
