<?xml version="1.0" encoding="utf-8"?>
<!-- Generator: Adobe Illustrator 16.0.0, SVG Export Plug-In . SVG Version: 6.00 Build 0)  -->
<!DOCTYPE svg PUBLIC "-//W3C//DTD SVG 1.1//EN" "http://www.w3.org/Graphics/SVG/1.1/DTD/svg11.dtd">
<svg version="1.1" id="Layer_1" xmlns="http://www.w3.org/2000/svg" xmlns:xlink="http://www.w3.org/1999/xlink" x="0px" y="0px"
	 width="600px" height="518px" viewBox="0 0 600 518" enable-background="new 0 0 600 518" xml:space="preserve">
<g>
	<circle fill="#FFFFFF" cx="300" cy="170.75" r="129.25"/>
	<g>
		<path fill="#404B5B" d="M300,266.454c-52.771,0-95.704-42.931-95.704-95.704c0-52.771,42.933-95.704,95.704-95.704
			c52.772,0,95.705,42.933,95.705,95.704C395.705,223.523,352.772,266.454,300,266.454z M300,105.457
			c-36.003,0-65.292,29.29-65.292,65.293c0,36.002,29.289,65.294,65.292,65.294s65.294-29.292,65.294-65.294
			C365.294,134.747,336.003,105.457,300,105.457z"/>
		
			<rect x="219.492" y="155.542" transform="matrix(-0.7071 -0.7071 0.7071 -0.7071 391.3859 503.611)" fill="#404B5B" width="161.003" height="30.412"/>
	</g>
</g>
</svg>
