<?xml version="1.0" encoding="utf-8"?>
<!-- Generator: Adobe Illustrator 16.0.0, SVG Export Plug-In . SVG Version: 6.00 Build 0)  -->
<!DOCTYPE svg PUBLIC "-//W3C//DTD SVG 1.1//EN" "http://www.w3.org/Graphics/SVG/1.1/DTD/svg11.dtd">
<svg version="1.1" id="Layer_1" xmlns="http://www.w3.org/2000/svg" xmlns:xlink="http://www.w3.org/1999/xlink" x="0px" y="0px"
	 width="600px" height="518px" viewBox="0 0 600 518" enable-background="new 0 0 600 518" xml:space="preserve">
<g>
	<path fill="#E64C3C" d="M374.975,230.809c0,2.116-1.722,3.839-3.839,3.839c-2.1,0-3.826-1.723-3.826-3.839
		c0-0.759,0.212-1.453,0.606-2.058c0.182-0.288,0.396-0.547,0.636-0.771c0.504-0.623,1.008-1.25,1.498-1.901
		c9.183-12.033,14.641-27.083,14.641-43.395c0-14.417-4.259-27.857-11.603-39.093c-0.19,10.728-8.961,19.39-19.756,19.39
		c-10.92,0-19.765-8.858-19.765-19.763c0-1.705,0.214-3.365,0.616-4.946c0.017-0.015,0.017-0.015,0-0.028
		c0.276-0.977,0.593-1.923,0.988-2.837c0-0.014,0-0.03,0.02-0.03c2.019-6.208,3.41-12.684,4.124-19.378
		c0.348-3.282,0.519-6.618,0.519-10.001c0-28.835-12.871-54.663-33.193-72.062c13.915,27.289,1.736,65.445-35.688,90.771
		c-1.52,1.082-2.993,2.255-4.427,3.477c-15.392,13.139-25.153,32.675-25.153,54.5c0,6.508,1.777,11.364,2.301,18.096
		c0.609,7.707-5.87,13.448-12.892,13.448c-7.04,0-12.726-5.697-12.726-12.726c0-1.267,0.185-2.493,0.527-3.651
		c-2.105,4.923-3.279,10.314-3.279,16.005c0,16.395,9.746,30.526,23.774,36.881c3.059,1.397,6.336,2.422,9.746,2.994
		c2.263,0.41,4.587,0.617,6.966,0.617c9.086,0,93.813,0,99.26,0c0.983,0,1.968-0.074,2.905-0.207c1.854-0.272,3.604-0.788,5.245-1.5
		c7.129-3.146,12.082-10.249,12.082-18.547c0-1.204-0.111-2.41-0.324-3.574C374.975,230.611,374.975,230.714,374.975,230.809z"/>
	<path fill="#FFFFFF" d="M271.557,243.17c0,0.998,0.819,1.813,1.826,1.813c1,0,1.815-0.814,1.815-1.813
		c0-0.361-0.103-0.693-0.283-0.984c-0.093-0.133-0.194-0.256-0.31-0.359c-0.241-0.294-0.477-0.595-0.707-0.904
		c-4.366-5.714-6.956-12.865-6.956-20.61c0-6.844,2.019-13.23,5.511-18.569c0.091,5.104,4.257,9.212,9.378,9.212
		c5.182,0,9.388-4.208,9.388-9.397c0-0.805-0.102-1.583-0.293-2.345c-0.006-0.004-0.006-0.004,0-0.01
		c-0.13-0.462-0.281-0.902-0.468-1.348c0-0.006,0-0.012-0.004-0.012c-0.961-2.948-1.624-6.03-1.956-9.205
		c-0.175-1.561-0.25-3.144-0.25-4.75c0-13.696,6.112-25.962,15.75-34.226c-6.598,12.961-0.82,31.085,16.964,43.11
		c0.717,0.513,1.412,1.074,2.094,1.655c7.314,6.241,11.947,15.512,11.947,25.88c0,3.093-0.845,5.403-1.093,8.587
		c-0.285,3.667,2.793,6.394,6.128,6.394c3.338,0,6.044-2.708,6.044-6.042c0-0.609-0.094-1.187-0.255-1.738
		c1.001,2.335,1.558,4.905,1.558,7.605c0,7.787-4.628,14.497-11.297,17.51c-1.452,0.666-3.001,1.154-4.621,1.428
		c-1.078,0.192-2.169,0.294-3.308,0.294c-4.316,0-44.55,0-47.14,0c-0.475,0-0.936-0.035-1.385-0.102
		c-0.88-0.135-1.709-0.378-2.495-0.712c-3.38-1.49-5.735-4.872-5.735-8.804c0-0.582,0.052-1.154,0.157-1.704
		C271.557,243.072,271.557,243.121,271.557,243.17z"/>
</g>
<path fill="#404B5B" d="M355.98,282.5h51.844c1.067,0,2.125-0.41,2.931-1.214c0.817-0.806,1.215-1.873,1.215-2.929v-19.706
	c0-1.067-0.397-2.123-1.215-2.928c-0.806-0.818-1.863-1.214-2.931-1.214H355.98V282.5z"/>
<path fill="#343D4A" d="M188.031,278.357c0,1.056,0.408,2.123,1.214,2.929c0.812,0.804,1.87,1.214,2.934,1.214h51.839v-27.99
	h-51.839c-1.063,0-2.122,0.396-2.934,1.214c-0.806,0.805-1.214,1.86-1.214,2.928V278.357z"/>
<rect x="299.996" y="254.511" fill="#343D4A" width="55.985" height="27.989"/>
<rect x="244.017" y="254.511" fill="#404B5B" width="55.979" height="27.989"/>
</svg>
