<?xml version="1.0" encoding="utf-8"?>
<!-- Generator: Adobe Illustrator 16.0.0, SVG Export Plug-In . SVG Version: 6.00 Build 0)  -->
<!DOCTYPE svg PUBLIC "-//W3C//DTD SVG 1.1//EN" "http://www.w3.org/Graphics/SVG/1.1/DTD/svg11.dtd">
<svg version="1.1" id="Layer_1" xmlns="http://www.w3.org/2000/svg" xmlns:xlink="http://www.w3.org/1999/xlink" x="0px" y="0px"
	 width="600px" height="518px" viewBox="0 0 600 518" enable-background="new 0 0 600 518" xml:space="preserve">
<g>
	<path fill="#D9D8D7" d="M364.436,144.825l-4.664-4.666l7.076-7.073c6.475-6.489,6.478-17.032,0.002-23.496
		c-3.144-3.147-7.314-4.878-11.75-4.878c-4.437,0-8.607,1.731-11.748,4.874c-9.055,9.042-23.785,9.042-32.84,0.005
		c-9.048-9.064-9.046-23.801-0.004-32.855l4.668,4.663c-6.475,6.482-6.475,17.037,0.002,23.525
		c6.477,6.464,17.026,6.466,23.508-0.005c4.383-4.387,10.213-6.806,16.414-6.806c6.199,0,12.029,2.419,16.414,6.811
		c9.049,9.033,9.051,23.758,0.002,32.826L364.436,144.825z"/>
	<g>
		<g>
			<rect x="310.463" y="53.417" fill="#404B5B" width="4.758" height="11.586"/>
			
				<rect x="297.14" y="59.493" transform="matrix(-0.5004 -0.8658 0.8658 -0.5004 400.9344 355.1152)" fill="#404B5B" width="11.584" height="4.759"/>
			
				<rect x="289.86" y="66.764" transform="matrix(-0.8659 -0.5003 0.5003 -0.8659 517.053 276.9238)" fill="#404B5B" width="11.584" height="4.76"/>
			<rect x="287.182" y="76.687" fill="#404B5B" width="11.586" height="4.76"/>
			
				<rect x="316.988" y="93.918" transform="matrix(-0.5003 -0.8659 0.8659 -0.5003 400.8773 423.9604)" fill="#404B5B" width="11.59" height="4.759"/>
			
				<rect x="324.261" y="86.645" transform="matrix(-0.866 -0.5001 0.5001 -0.866 571.3481 331.1709)" fill="#404B5B" width="11.579" height="4.761"/>
			<rect x="326.918" y="76.687" fill="#404B5B" width="11.587" height="4.76"/>
			
				<rect x="327.682" y="63.342" transform="matrix(-0.5004 -0.8658 0.8658 -0.5004 435.3688 389.4937)" fill="#404B5B" width="4.76" height="11.584"/>
			
				<rect x="320.398" y="56.075" transform="matrix(-0.8661 -0.4999 0.4999 -0.8661 571.393 276.8164)" fill="#404B5B" width="4.758" height="11.584"/>
		</g>
	</g>
	<g>
		<path fill="#404B5B" d="M368.331,209.57c0,40.509-32.831,73.327-73.315,73.327c-40.495,0-73.315-32.817-73.315-73.327
			c0-40.485,32.82-73.305,73.315-73.305C335.5,136.265,368.331,169.085,368.331,209.57z"/>
		<path fill="#FFFFFF" d="M249.604,202.423c-0.736,0-1.485-0.112-2.224-0.347c-3.858-1.228-5.992-5.351-4.766-9.209
			c5.392-16.954,18.732-30.295,35.688-35.687c3.856-1.224,7.981,0.905,9.208,4.767c1.227,3.859-0.906,7.981-4.766,9.208
			c-12.428,3.951-22.206,13.729-26.157,26.154C255.596,200.432,252.71,202.423,249.604,202.423z"/>
		<path fill="#343D4A" d="M372.609,163.095c1.291-1.293,2.091-3.077,2.091-5.047c0-1.97-0.8-3.754-2.091-5.047l-21.01-21.012
			c-1.293-1.294-3.078-2.093-5.051-2.091c-1.972,0-3.756,0.8-5.048,2.091l-12.569,12.583l31.096,31.104L372.609,163.095z"/>
	</g>
</g>
</svg>
