<?xml version="1.0" encoding="utf-8"?>
<!-- Generator: Adobe Illustrator 16.0.0, SVG Export Plug-In . SVG Version: 6.00 Build 0)  -->
<!DOCTYPE svg PUBLIC "-//W3C//DTD SVG 1.1//EN" "http://www.w3.org/Graphics/SVG/1.1/DTD/svg11.dtd">
<svg version="1.1" id="Layer_1" xmlns="http://www.w3.org/2000/svg" xmlns:xlink="http://www.w3.org/1999/xlink" x="0px" y="0px"
	 width="600px" height="518px" viewBox="0 0 600 518" enable-background="new 0 0 600 518" xml:space="preserve">
<g>
	<path fill="#E74C3C" d="M299.999,70.639c-54.117,0-97.992,43.872-97.992,97.994v58.795h195.984v-58.795
		C397.991,114.511,354.12,70.639,299.999,70.639z"/>
	<g>
		<path fill="#FFFFFF" d="M242.494,152.459c-1.175,0-2.371-0.237-3.519-0.737c-4.463-1.944-6.507-7.141-4.564-11.606
			c11.384-26.137,37.127-43.025,65.588-43.025c4.87,0,8.819,3.948,8.819,8.819c0,4.87-3.949,8.819-8.819,8.819
			c-21.439,0-40.837,12.729-49.413,32.428C249.14,150.477,245.896,152.459,242.494,152.459z"/>
		<path fill="#FFFFFF" d="M237.28,200.964c-4.869,0-8.819-3.95-8.819-8.82v-23.519c0-4.87,3.95-8.818,8.819-8.818
			c4.87,0,8.82,3.948,8.82,8.818v23.519C246.101,197.014,242.15,200.964,237.28,200.964z"/>
	</g>
	<path fill="#CE4435" d="M272.563,227.428v-58.795c0-15.13,12.305-27.438,27.436-27.438c15.129,0,27.437,12.308,27.437,27.438
		v58.795H272.563z"/>
</g>
<g>
	<path fill="#404B5B" d="M422.489,256.826H177.508v-5.881c0-6.018,2.296-12.037,6.892-16.631c4.585-4.591,10.608-6.886,16.625-6.886
		h197.946c6.021,0,12.043,2.294,16.627,6.886c4.599,4.595,6.893,10.614,6.893,16.631L422.489,256.826L422.489,256.826z"/>
	<rect x="167.708" y="256.826" fill="#343D4A" width="264.584" height="19.6"/>
</g>
</svg>
