<?xml version="1.0" encoding="utf-8"?>
<!-- Generator: Adobe Illustrator 16.0.0, SVG Export Plug-In . SVG Version: 6.00 Build 0)  -->
<!DOCTYPE svg PUBLIC "-//W3C//DTD SVG 1.1//EN" "http://www.w3.org/Graphics/SVG/1.1/DTD/svg11.dtd">
<svg version="1.1" id="Layer_1" xmlns="http://www.w3.org/2000/svg" xmlns:xlink="http://www.w3.org/1999/xlink" x="0px" y="0px"
	 width="600px" height="518px" viewBox="0 0 600 518" enable-background="new 0 0 600 518" xml:space="preserve">
<g>
	<path fill="#293B4D" d="M245.761,234.096l1.236,0.009c1.565,0,3.154-0.607,4.359-1.803c1.198-1.205,1.801-2.792,1.796-4.361
		l0.005-6.183c-0.002-1.564-0.603-3.143-1.803-4.343c-1.2-1.209-2.79-1.821-4.364-1.816h-1.225L245.761,234.096z"/>
	<path fill="#CDD3DA" d="M210.744,268.384c-0.002,1.583,0.604,3.166,1.806,4.371c1.209,1.209,2.789,1.808,4.377,1.812l22.665-0.008
		c1.578,0,3.156-0.604,4.371-1.809c1.202-1.205,1.803-2.792,1.807-4.37l-0.009-65.619h-35.017V268.384L210.744,268.384z"/>
	<path fill="#E7EAED" d="M220.969,274.559l-4.047,0.004c-0.827,0-1.661-0.166-2.43-0.494l-0.003-71.315l6.483,0.009L220.969,274.559
		z"/>
</g>
<path fill="#5E6E7F" d="M382.969,158.658c0,18.201-14.76,32.948-32.953,32.948c-18.188,0-32.949-14.748-32.949-32.948
	c0-18.192,14.763-32.949,32.949-32.949C368.209,125.709,382.969,140.466,382.969,158.658z"/>
<g>
	<g>
		<rect x="389.335" y="156.54" fill="#E64C3C" width="39.582" height="4.24"/>
		<polygon fill="#E64C3C" points="417.321,112.697 389.335,140.682 386.334,137.687 414.326,109.702 		"/>
		<polygon fill="#E64C3C" points="417.321,204.618 389.335,176.629 386.334,179.637 414.326,207.613 		"/>
	</g>
</g>
<g>
	<path fill="#E7EAED" d="M282.69,116.685h-23.324v83.873h23.324c28.887,0,54.537,13.867,70.63,35.309V81.372
		C337.229,102.814,311.577,116.685,282.69,116.685z"/>
	<path fill="#F6F9FB" d="M282.69,136.95h-23.324v-14.127h23.324c28.887,0,54.537-13.866,70.63-35.313v14.127
		C337.229,123.079,311.577,136.95,282.69,136.95z"/>
	<path fill="#293B4D" d="M370.979,235.863c0,2.262-0.869,4.523-2.588,6.245c-1.727,1.727-3.982,2.585-6.24,2.585l0,0
		c-2.262,0-4.521-0.859-6.246-2.585c-1.727-1.722-2.584-3.983-2.584-6.245V81.372c0-2.262,0.857-4.519,2.584-6.245
		c1.726-1.722,3.984-2.585,6.246-2.585l0,0c2.258,0,4.515,0.863,6.24,2.585c1.719,1.726,2.588,3.983,2.588,6.245V235.863z"/>
</g>
<g>
	<path fill="#E74C3C" d="M259.366,202.761h-57.383c-7.914,0-15.818-3.017-21.852-9.046c-6.036-6.034-9.049-13.947-9.049-21.852
		v-26.488c0-7.909,3.013-15.813,9.049-21.847c6.033-6.034,13.938-9.051,21.852-9.051h57.383V202.761z"/>
	<path fill="#F15742" d="M180.246,144.643c-0.173,0-0.351-0.013-0.533-0.045c-1.679-0.292-2.806-1.897-2.513-3.574
		c0.888-5.108,3.302-9.752,6.989-13.435c4.755-4.757,11.069-7.369,17.794-7.369h19.862c1.704,0,3.091,1.376,3.091,3.089
		c0,1.708-1.387,3.084-3.091,3.084h-19.862c-5.074,0-9.836,1.979-13.424,5.562c-2.783,2.783-4.602,6.286-5.278,10.126
		C183.024,143.591,181.721,144.643,180.246,144.643z"/>
	<path fill="#293B4D" d="M171.083,171.863h1.763c1.133,0,2.261-0.432,3.12-1.291c0.863-0.868,1.299-1.992,1.299-3.121V149.79
		c0-1.128-0.436-2.262-1.299-3.121c-0.859-0.863-1.987-1.295-3.12-1.295h-1.763V171.863z"/>
</g>
</svg>
