<?xml version="1.0" encoding="utf-8"?>
<!-- Generator: Adobe Illustrator 16.0.0, SVG Export Plug-In . SVG Version: 6.00 Build 0)  -->
<!DOCTYPE svg PUBLIC "-//W3C//DTD SVG 1.1//EN" "http://www.w3.org/Graphics/SVG/1.1/DTD/svg11.dtd">
<svg version="1.1" id="Layer_3" xmlns="http://www.w3.org/2000/svg" xmlns:xlink="http://www.w3.org/1999/xlink" x="0px" y="0px"
	 width="261px" height="90px" viewBox="0 0 261 90" enable-background="new 0 0 261 90" xml:space="preserve">
<g>
	<path fill="#FFFFFF" d="M21.939,69.312l-0.031-0.01l-0.031,0.011l-6.011,1.65l-0.104,0.03c1.526,1.083,3.208,2.119,5.066,3.081
		c0.339,0.176,0.708,0.264,1.079,0.264c0.372,0,0.742-0.088,1.08-0.264c1.858-0.962,3.541-1.997,5.065-3.08
		c-0.078-0.023-0.12-0.033-0.12-0.033L21.939,69.312z"/>
	<path fill="#FFFFFF" d="M41.491,25.103l-18.96-5.214c-0.204-0.056-0.413-0.083-0.623-0.083s-0.418,0.027-0.621,0.083L2.326,25.103
		c-1.019,0.28-1.725,1.207-1.725,2.262v3.096l21.307-5.876l21.307,5.824v-3.044C43.215,26.31,42.511,25.382,41.491,25.103z"/>
	<path fill="#FFFFFF" d="M22.53,29.586c-0.204-0.057-0.413-0.085-0.622-0.085c-0.21,0.002-0.418,0.028-0.621,0.085l-10.156,2.793
		L0.601,35.162L0.602,43.5c-0.004,0.217-0.009,1.109,0.134,2.479c0.104,0.997,0.287,2.243,0.606,3.671l20.566-5.67v-0.001
		l16.037,4.408c-0.287,1.329-0.715,2.864-1.355,4.519l-14.06-3.867c-0.204-0.057-0.413-0.084-0.622-0.084
		c-0.21,0-0.418,0.027-0.621,0.084L2.672,54.156c0.083,0.221,0.166,0.444,0.254,0.668C3.377,55.97,3.938,57.209,4.63,58.5
		c0.717,1.339,1.576,2.733,2.608,4.144c0.96,1.312,2.07,2.641,3.35,3.945l11.32-3.113l11.321,3.113
		c1.279-1.305,2.39-2.633,3.351-3.945L22.53,58.781c-0.204-0.057-0.413-0.085-0.622-0.085c-0.21,0-0.418,0.028-0.621,0.085
		l-9.181,2.525c-1.061-1.289-2.004-2.656-2.836-4.098l12.637-3.475l12.622,3.469l3.993,1.1v0.014l0.664,0.184
		c0.692-1.291,1.254-2.53,1.704-3.676c0.088-0.224,0.173-0.447,0.254-0.668c0.6-1.621,1.028-3.146,1.333-4.506
		c0.318-1.428,0.499-2.674,0.604-3.67c-0.001-0.003-0.001-0.003-0.001-0.003c0.041-0.385,0.067-0.728,0.088-1.031L22.53,39.285
		c-0.204-0.058-0.413-0.086-0.622-0.086c-0.21,0-0.418,0.029-0.621,0.086L5.292,43.682c0-0.051,0-0.081,0-0.083
		c0.001-0.023,0.001-0.048,0.001-0.07v-4.663v-0.014l16.614-4.569l21.307,5.877v-4.96l-4.692-1.215L22.53,29.586z"/>
</g>
<path fill="#FFFFFF" d="M79.75,46.558c0,1.684-0.221,3.238-0.663,4.665c-0.443,1.427-1.091,2.653-1.947,3.68
	c-0.856,1.027-1.904,1.826-3.146,2.396s-2.661,0.856-4.258,0.856c-1.284,0-2.418-0.171-3.402-0.514
	c-0.984-0.343-1.719-0.67-2.204-0.984v8.901h-3.98V36.073c0.941-0.228,2.118-0.478,3.53-0.749c1.413-0.271,3.045-0.407,4.9-0.407
	c1.712,0,3.252,0.271,4.622,0.813c1.37,0.542,2.539,1.312,3.509,2.311c0.97,0.999,1.719,2.219,2.247,3.659
	C79.486,43.142,79.75,44.761,79.75,46.558z M75.599,46.558c0-2.595-0.642-4.593-1.926-5.991c-1.284-1.397-2.996-2.097-5.136-2.097
	c-1.198,0-2.133,0.042-2.803,0.128c-0.67,0.085-1.206,0.186-1.604,0.299v14.037c0.485,0.399,1.184,0.784,2.097,1.155
	s1.911,0.556,2.996,0.556c1.141,0,2.119-0.206,2.932-0.62c0.813-0.413,1.477-0.984,1.99-1.712c0.513-0.728,0.884-1.583,1.112-2.567
	C75.484,48.762,75.599,47.699,75.599,46.558z"/>
<path fill="#FFFFFF" d="M92.545,34.832c1.598,0,2.946,0.208,4.044,0.621c1.098,0.414,1.982,0.999,2.653,1.754
	c0.67,0.756,1.148,1.655,1.434,2.696c0.285,1.042,0.428,2.19,0.428,3.445v13.909c-0.342,0.057-0.82,0.136-1.434,0.235
	c-0.614,0.1-1.305,0.192-2.076,0.277c-0.77,0.086-1.604,0.164-2.503,0.235s-1.791,0.107-2.675,0.107
	c-1.256,0-2.411-0.128-3.466-0.385c-1.056-0.257-1.969-0.664-2.739-1.22c-0.771-0.557-1.37-1.291-1.798-2.204
	c-0.428-0.913-0.642-2.012-0.642-3.296c0-1.226,0.25-2.282,0.749-3.166c0.499-0.885,1.177-1.598,2.033-2.141
	c0.856-0.541,1.854-0.94,2.996-1.197c1.141-0.257,2.339-0.385,3.595-0.385c0.399,0,0.813,0.021,1.241,0.064
	c0.428,0.042,0.834,0.1,1.22,0.171c0.385,0.072,0.72,0.136,1.005,0.192c0.285,0.058,0.485,0.101,0.599,0.128v-1.112
	c0-0.656-0.071-1.306-0.214-1.947c-0.143-0.642-0.4-1.212-0.77-1.712c-0.371-0.499-0.877-0.899-1.52-1.198
	c-0.642-0.3-1.477-0.449-2.503-0.449c-1.312,0-2.461,0.093-3.445,0.278c-0.984,0.186-1.719,0.378-2.204,0.578l-0.471-3.295
	c0.513-0.228,1.369-0.449,2.567-0.664C89.849,34.939,91.147,34.832,92.545,34.832z M92.888,54.774c0.941,0,1.776-0.021,2.503-0.064
	c0.728-0.043,1.333-0.121,1.819-0.235v-6.633c-0.285-0.143-0.749-0.264-1.391-0.364c-0.642-0.1-1.419-0.149-2.333-0.149
	c-0.599,0-1.234,0.043-1.904,0.128c-0.671,0.086-1.284,0.265-1.84,0.535c-0.556,0.271-1.021,0.642-1.391,1.112
	c-0.371,0.471-0.557,1.092-0.557,1.862c0,1.427,0.456,2.418,1.37,2.974C90.077,54.496,91.318,54.774,92.888,54.774z"/>
<path fill="#FFFFFF" d="M107.695,36.03c0.913-0.228,2.125-0.471,3.637-0.728s3.253-0.385,5.221-0.385
	c1.769,0,3.238,0.25,4.408,0.749c1.169,0.5,2.104,1.198,2.803,2.097c0.699,0.898,1.191,1.976,1.477,3.231
	c0.285,1.256,0.428,2.639,0.428,4.151v12.496h-3.98V46.001c0-1.369-0.093-2.538-0.278-3.508c-0.186-0.97-0.492-1.755-0.92-2.354
	c-0.428-0.599-0.999-1.034-1.712-1.305c-0.713-0.271-1.598-0.407-2.653-0.407c-0.428,0-0.871,0.015-1.327,0.043
	c-0.457,0.029-0.892,0.064-1.305,0.107c-0.414,0.043-0.785,0.093-1.113,0.15c-0.329,0.057-0.564,0.1-0.706,0.128v18.787h-3.98V36.03
	z"/>
<path fill="#FFFFFF" d="M134.228,31.366c-0.714,0-1.32-0.235-1.819-0.706c-0.499-0.471-0.749-1.105-0.749-1.905
	c0-0.798,0.25-1.434,0.749-1.904s1.105-0.706,1.819-0.706c0.713,0,1.319,0.235,1.818,0.706s0.749,1.106,0.749,1.904
	c0,0.799-0.25,1.434-0.749,1.905C135.547,31.13,134.94,31.366,134.228,31.366z M136.238,57.642h-3.979V35.388h3.979V57.642z"/>
<path fill="#FFFFFF" d="M152.758,58.155c-1.798,0-3.374-0.286-4.729-0.856s-2.496-1.369-3.423-2.396
	c-0.928-1.026-1.62-2.246-2.076-3.658c-0.457-1.413-0.685-2.975-0.685-4.687c0-1.711,0.249-3.28,0.749-4.707
	c0.499-1.426,1.205-2.66,2.118-3.702s2.033-1.854,3.359-2.439c1.327-0.584,2.804-0.877,4.43-0.877c0.998,0,1.996,0.085,2.995,0.257
	c0.999,0.171,1.954,0.442,2.868,0.813l-0.899,3.381c-0.599-0.285-1.291-0.514-2.075-0.685c-0.785-0.171-1.62-0.257-2.504-0.257
	c-2.226,0-3.931,0.699-5.114,2.097s-1.775,3.438-1.775,6.119c0,1.198,0.135,2.297,0.406,3.295c0.271,0.999,0.699,1.855,1.284,2.568
	c0.584,0.713,1.333,1.262,2.246,1.647c0.913,0.385,2.026,0.577,3.339,0.577c1.055,0,2.011-0.1,2.867-0.299
	c0.855-0.199,1.525-0.414,2.011-0.643l0.557,3.338c-0.229,0.144-0.557,0.278-0.984,0.407c-0.428,0.128-0.913,0.242-1.455,0.342
	s-1.12,0.186-1.733,0.257S153.328,58.155,152.758,58.155z"/>
<path opacity="0.5" fill="#FFFFFF" d="M166.023,65.559h-2.781V36.287c0.827-0.285,1.883-0.556,3.167-0.813
	c1.283-0.257,2.91-0.385,4.878-0.385c1.627,0,3.104,0.264,4.43,0.792c1.327,0.528,2.468,1.292,3.424,2.29
	c0.955,0.999,1.697,2.211,2.226,3.638c0.527,1.427,0.791,3.039,0.791,4.836c0,1.684-0.221,3.23-0.663,4.643
	s-1.091,2.626-1.947,3.638c-0.855,1.014-1.904,1.805-3.146,2.375s-2.66,0.856-4.258,0.856c-1.455,0-2.718-0.207-3.787-0.621
	c-1.07-0.413-1.848-0.806-2.333-1.177V65.559z M166.023,53.661c0.257,0.2,0.578,0.414,0.963,0.643
	c0.386,0.229,0.835,0.442,1.349,0.642c0.514,0.2,1.069,0.364,1.669,0.492c0.599,0.129,1.227,0.192,1.883,0.192
	c1.369,0,2.518-0.235,3.445-0.706c0.927-0.471,1.676-1.112,2.246-1.926c0.57-0.812,0.984-1.769,1.241-2.867
	c0.257-1.098,0.386-2.261,0.386-3.487c0-2.91-0.728-5.142-2.183-6.697c-1.455-1.555-3.381-2.333-5.777-2.333
	c-1.37,0-2.476,0.064-3.317,0.192s-1.477,0.264-1.904,0.407V53.661z"/>
<path opacity="0.5" fill="#FFFFFF" d="M195.724,35.089c0.912,0,1.775,0.071,2.589,0.214c0.812,0.143,1.376,0.286,1.69,0.428
	l-0.557,2.396c-0.229-0.114-0.692-0.235-1.391-0.364c-0.699-0.128-1.62-0.193-2.761-0.193c-1.198,0-2.161,0.086-2.889,0.257
	c-0.728,0.171-1.205,0.314-1.434,0.428v19.386h-2.781V36.544c0.713-0.313,1.697-0.635,2.953-0.963
	C192.399,35.253,193.926,35.089,195.724,35.089z"/>
<path opacity="0.5" fill="#FFFFFF" d="M202.87,46.558c0-1.939,0.278-3.63,0.835-5.071c0.556-1.44,1.283-2.646,2.183-3.616
	c0.898-0.97,1.926-1.69,3.081-2.161s2.347-0.706,3.573-0.706c2.71,0,4.871,0.884,6.483,2.653s2.418,4.493,2.418,8.173
	c0,0.229-0.007,0.457-0.021,0.685c-0.015,0.229-0.036,0.442-0.063,0.642h-15.535c0.086,2.711,0.756,4.794,2.012,6.249
	c1.255,1.455,3.252,2.183,5.991,2.183c1.512,0,2.71-0.143,3.595-0.429c0.884-0.284,1.526-0.527,1.926-0.728l0.514,2.396
	c-0.4,0.229-1.148,0.5-2.247,0.813s-2.39,0.471-3.873,0.471c-1.94,0-3.595-0.285-4.964-0.855c-1.37-0.57-2.497-1.37-3.381-2.396
	c-0.885-1.027-1.526-2.247-1.926-3.659C203.069,49.789,202.87,48.241,202.87,46.558z M218.576,44.803
	c-0.058-2.311-0.599-4.108-1.626-5.392s-2.482-1.926-4.365-1.926c-0.999,0-1.891,0.2-2.675,0.599c-0.785,0.4-1.47,0.935-2.054,1.605
	c-0.586,0.67-1.042,1.448-1.37,2.332c-0.328,0.885-0.521,1.812-0.577,2.782H218.576z"/>
<path opacity="0.5" fill="#FFFFFF" d="M232.185,55.673c1.598,0,2.917-0.264,3.959-0.792c1.041-0.527,1.562-1.419,1.562-2.674
	c0-0.6-0.093-1.113-0.278-1.541s-0.492-0.813-0.92-1.155c-0.428-0.343-0.991-0.67-1.69-0.984c-0.699-0.313-1.562-0.685-2.589-1.113
	c-0.828-0.342-1.612-0.691-2.354-1.048c-0.743-0.356-1.398-0.771-1.969-1.241c-0.571-0.47-1.027-1.033-1.37-1.69
	c-0.342-0.656-0.514-1.455-0.514-2.396c0-1.798,0.678-3.252,2.033-4.365c1.354-1.113,3.217-1.669,5.585-1.669
	c1.512,0,2.761,0.128,3.744,0.385c0.984,0.257,1.676,0.486,2.076,0.685l-0.643,2.482c-0.342-0.171-0.92-0.399-1.732-0.685
	c-0.813-0.285-2.005-0.428-3.574-0.428c-0.627,0-1.219,0.065-1.775,0.193s-1.049,0.329-1.477,0.601s-0.771,0.614-1.027,1.029
	c-0.257,0.415-0.385,0.922-0.385,1.522c0,0.601,0.113,1.116,0.342,1.544c0.229,0.43,0.563,0.808,1.006,1.137
	c0.442,0.329,0.984,0.635,1.626,0.918c0.643,0.284,1.377,0.597,2.204,0.938c0.856,0.341,1.676,0.688,2.461,1.043
	c0.784,0.355,1.477,0.783,2.076,1.281c0.599,0.5,1.083,1.099,1.455,1.798c0.37,0.699,0.556,1.577,0.556,2.632
	c0,1.997-0.749,3.51-2.246,4.536c-1.498,1.027-3.546,1.541-6.142,1.541c-1.94,0-3.424-0.165-4.451-0.492
	c-1.026-0.328-1.712-0.578-2.054-0.749l0.728-2.525c0.086,0.058,0.271,0.15,0.557,0.278c0.284,0.129,0.67,0.271,1.155,0.429
	c0.484,0.156,1.062,0.292,1.733,0.406C230.522,55.616,231.3,55.673,232.185,55.673z"/>
<path opacity="0.5" fill="#FFFFFF" d="M250.501,55.673c1.598,0,2.917-0.264,3.959-0.792c1.041-0.527,1.562-1.419,1.562-2.674
	c0-0.6-0.093-1.113-0.278-1.541s-0.492-0.813-0.92-1.155c-0.428-0.343-0.991-0.67-1.69-0.984c-0.699-0.313-1.562-0.685-2.589-1.113
	c-0.828-0.342-1.612-0.691-2.354-1.048c-0.743-0.356-1.398-0.771-1.969-1.241c-0.571-0.47-1.027-1.033-1.37-1.69
	c-0.342-0.656-0.514-1.455-0.514-2.396c0-1.798,0.678-3.252,2.033-4.365c1.354-1.113,3.217-1.669,5.585-1.669
	c1.512,0,2.761,0.128,3.744,0.385c0.984,0.257,1.676,0.486,2.076,0.685l-0.643,2.482c-0.342-0.171-0.92-0.399-1.732-0.685
	c-0.813-0.285-2.005-0.428-3.574-0.428c-0.627,0-1.219,0.065-1.775,0.193s-1.049,0.329-1.477,0.601s-0.771,0.614-1.027,1.029
	c-0.257,0.415-0.385,0.922-0.385,1.522c0,0.601,0.113,1.116,0.342,1.544c0.229,0.43,0.563,0.808,1.006,1.137
	c0.442,0.329,0.984,0.635,1.626,0.918c0.643,0.284,1.377,0.597,2.204,0.938c0.856,0.341,1.676,0.688,2.461,1.043
	c0.784,0.355,1.477,0.783,2.076,1.281c0.599,0.5,1.083,1.099,1.455,1.798c0.37,0.699,0.556,1.577,0.556,2.632
	c0,1.997-0.749,3.51-2.246,4.536c-1.498,1.027-3.546,1.541-6.142,1.541c-1.94,0-3.424-0.165-4.451-0.492
	c-1.026-0.328-1.712-0.578-2.054-0.749l0.728-2.525c0.086,0.058,0.271,0.15,0.557,0.278c0.284,0.129,0.67,0.271,1.155,0.429
	c0.484,0.156,1.062,0.292,1.733,0.406C248.839,55.616,249.616,55.673,250.501,55.673z"/>
</svg>
